<svg aria-hidden="true" style="width:0;height:0;position:absolute;overflow:hidden" xmlns="http://www.w3.org/2000/svg"><defs><symbol id="icon-down" viewBox="0 0 32 32"><path d="M15.92 21.12c-.24 0-.4-.08-.56-.24l-6.4-6.4c-.32-.32-.32-.8 0-1.12s.8-.32 1.12 0l5.84 5.84 5.84-5.84c.32-.32.8-.32 1.12 0s.32.8 0 1.12l-6.4 6.4c-.16.16-.4.24-.56.24z"/><path d="M15.92 32c-8.8 0-16-7.2-16-16s7.2-16 16-16c3.6 0 6.96 1.2 9.84 3.36.32.24.4.8.16 1.12-.32.32-.8.4-1.12.16-2.56-2-5.6-3.04-8.88-3.04C8 1.6 1.52 8.08 1.52 16S8 30.4 15.92 30.4s14.4-6.48 14.4-14.4c0-2.56-.72-5.12-2-7.36-.24-.4-.08-.88.24-1.12.4-.24.88-.08 1.12.24 1.44 2.48 2.24 5.28 2.24 8.16 0 8.88-7.12 16.08-16 16.08z"/></symbol><symbol id="icon-left" viewBox="0 0 32 32"><path d="M18.24 23.2c-.24 0-.4-.08-.56-.24l-6.4-6.4a.773.773 0 0 1 0-1.12l6.4-6.4c.32-.32.8-.32 1.12 0s.32.8 0 1.12L12.96 16l5.84 5.84c.32.32.32.8 0 1.12-.16.16-.4.24-.56.24z"/><path d="M16 32C7.2 32 0 24.8 0 16S7.2 0 16 0c3.6 0 6.96 1.2 9.84 3.36.32.24.4.8.16 1.12s-.8.4-1.12.16C22.32 2.64 19.2 1.6 16 1.6 8.08 1.6 1.6 8.08 1.6 16S8.08 30.4 16 30.4 30.4 23.92 30.4 16c0-2.56-.72-5.12-2-7.36-.24-.4-.08-.88.24-1.12.4-.24.88-.08 1.12.24C31.2 10.32 32 13.12 32 16c0 8.8-7.2 16-16 16z"/></symbol><symbol id="icon-up" viewBox="0 0 32 32"><path d="M22.32 18.88c-.24 0-.4-.08-.56-.24l-5.84-5.84-5.84 5.84c-.32.32-.8.32-1.12 0s-.32-.8 0-1.12l6.4-6.4c.32-.32.8-.32 1.12 0l6.4 6.4c.32.32.32.8 0 1.12-.16.16-.32.24-.56.24z"/><path d="M16 32C7.2 32 0 24.8 0 16S7.2 0 16 0c3.6 0 6.96 1.2 9.84 3.36.32.24.4.8.16 1.12s-.8.4-1.12.16C22.32 2.64 19.2 1.6 16 1.6 8.08 1.6 1.6 8.08 1.6 16S8.08 30.4 16 30.4 30.4 23.92 30.4 16c0-2.56-.72-5.12-2-7.36-.24-.4-.08-.88.24-1.12.4-.24.88-.08 1.12.24C31.2 10.32 32 13.12 32 16c0 8.8-7.2 16-16 16z"/></symbol><symbol id="icon-right" viewBox="0 0 32 32"><path d="M13.44 23.2c-.24 0-.4-.08-.56-.24a.773.773 0 0 1 0-1.12L18.72 16l-5.84-5.84c-.32-.32-.32-.8 0-1.12s.8-.32 1.12 0l6.4 6.4c.32.32.32.8 0 1.12l-6.4 6.4c-.16.16-.4.24-.56.24z"/><path d="M16 32C7.2 32 0 24.8 0 16S7.2 0 16 0c3.6 0 6.96 1.2 9.84 3.36.32.24.4.8.16 1.12s-.8.4-1.12.16C22.32 2.64 19.2 1.6 16 1.6 8.08 1.6 1.6 8.08 1.6 16S8.08 30.4 16 30.4 30.4 23.92 30.4 16c0-2.56-.72-5.12-2-7.36-.24-.4-.08-.88.24-1.12.4-.24.88-.08 1.12.24C31.2 10.32 32 13.12 32 16c0 8.8-7.2 16-16 16z"/></symbol><symbol id="icon-drone" viewBox="0 0 32 32"><path d="M16.007 15.954a1.706 1.706 0 0 0-1.248.52c-.346.345-.52.761-.52 1.247 0 .488.174.905.52 1.251.345.345.761.517 1.248.516.488.001.905-.171 1.251-.516.345-.346.517-.763.516-1.251a1.699 1.699 0 0 0-.516-1.247 1.71 1.71 0 0 0-1.251-.52zm1.43-4.131h.084c.642.015 1.201.118 1.677.309.485.196.884.485 1.197.866h5.63v-1.629a28.868 28.868 0 0 1-1.91-.095c-.415-.036-.803-.08-1.164-.135-1.032-.152-1.548-.335-1.549-.549.001-.213.517-.396 1.55-.549.872-.126 1.897-.199 3.073-.218v-.076a.71.71 0 0 1 .04-.251.756.756 0 0 1 .728-.52.77.77 0 0 1 .782.749v.098c.4.011.781.029 1.146.055a19.53 19.53 0 0 1 1.706.164l.087.018c.977.148 1.466.325 1.47.531-.003.208-.493.386-1.47.535l-.087.014c-.816.123-1.766.197-2.852.222v1.637h.677a.752.752 0 0 1 .549.229c.152.15.228.332.229.546a.736.736 0 0 1-.116.407 1.054 1.054 0 0 1-.575.371l-6.372 1.527 2.433 5.099.04.076c.583 1.64.177 2.953-1.218 3.939a.75.75 0 0 1-1.073-.186.75.75 0 0 1-.138-.578.745.745 0 0 1 .317-.498c.751-.539.968-1.254.651-2.146l-2.557-5.335-.666.164v2.658c0 .19-.047.367-.142.531v.004a1.059 1.059 0 0 1-.389.386l-2.684 1.546v.004a1.062 1.062 0 0 1-1.062-.003l-2.688-1.553a1.048 1.048 0 0 1-.382-.389 1.035 1.035 0 0 1-.142-.527v-2.655l-.669-.164-2.557 5.335c-.317.892-.1 1.607.651 2.146a.74.74 0 0 1 .316.498.749.749 0 0 1-.138.578.748.748 0 0 1-1.073.186c-1.396-.986-1.802-2.299-1.218-3.939a1.82 1.82 0 0 1 .04-.076l2.433-5.099-6.372-1.527a1.057 1.057 0 0 1-.575-.371.739.739 0 0 1-.116-.407.746.746 0 0 1 .229-.546.753.753 0 0 1 .549-.229h.676v-1.637a22.918 22.918 0 0 1-2.939-.236c-.977-.148-1.466-.326-1.47-.535.003-.206.493-.383 1.47-.531l.087-.018a19.926 19.926 0 0 1 1.706-.164c.364-.025.746-.043 1.146-.055v-.098a.77.77 0 0 1 .782-.749.756.756 0 0 1 .728.52.71.71 0 0 1 .04.251v.076c1.177.019 2.201.092 3.073.218 1.032.153 1.549.336 1.55.549-.001.214-.517.397-1.55.549-.361.054-.749.099-1.164.135-.584.05-1.22.082-1.91.095V13h5.63a2.958 2.958 0 0 1 1.197-.866c.476-.191 1.035-.294 1.677-.309h.084c.073-.002.148-.002.225 0h2.408c.077-.002.152-.002.225 0z"/><path d="M16.004 16.838a.858.858 0 0 1 .626.262.843.843 0 0 1 .258.622c0 .244-.086.452-.258.626s-.382.259-.626.258a.847.847 0 0 1-.622-.258.856.856 0 0 1-.262-.626.847.847 0 0 1 .262-.622.847.847 0 0 1 .622-.262z"/></symbol><symbol id="icon-up-arrow" viewBox="0 0 32 32"><path d="M16 0 0 16h10v16h12V16h10L16 0z"/></symbol><symbol id="icon-down-arrow" viewBox="0 0 32 32"><path d="m32 15.405-8.058-.002.002-14.771H8.043v14.773L0 15.403l16.001 15.965z"/></symbol><symbol id="icon-arrow_down" viewBox="0 0 32 32"><path d="M28 2a2 2 0 0 1 2 2v24a2 2 0 0 1-2 2H4a2 2 0 0 1-2-2V4a2 2 0 0 1 2-2h24zM4 0a4 4 0 0 0-4 4v24a4 4 0 0 0 4 4h24a4 4 0 0 0 4-4V4a4 4 0 0 0-4-4H4z"/><path d="M16 8a1 1 0 0 1 1 1v11.586l4.292-4.294a1 1 0 1 1 1.416 1.416l-6 6a.998.998 0 0 1-1.416 0l-6-6a1 1 0 1 1 1.416-1.416L15 20.586V9a1 1 0 0 1 1-1z"/></symbol><symbol id="icon-arrow_right" viewBox="0 0 32 32"><path d="M30 4a2 2 0 0 0-2-2H4a2 2 0 0 0-2 2v24a2 2 0 0 0 2 2h24a2 2 0 0 0 2-2V4zM0 4a4 4 0 0 1 4-4h24a4 4 0 0 1 4 4v24a4 4 0 0 1-4 4H4a4 4 0 0 1-4-4V4zm9 11a1 1 0 0 0 0 2h11.586l-4.294 4.292a1 1 0 1 0 1.416 1.416l6-6a.998.998 0 0 0 0-1.416l-6-6a1 1 0 1 0-1.416 1.416L20.586 15H9z"/></symbol><symbol id="icon-arrow_left" viewBox="0 0 32 32"><path d="M28 2a2 2 0 0 1 2 2v24a2 2 0 0 1-2 2H4a2 2 0 0 1-2-2V4a2 2 0 0 1 2-2h24zM4 0a4 4 0 0 0-4 4v24a4 4 0 0 0 4 4h24a4 4 0 0 0 4-4V4a4 4 0 0 0-4-4H4z"/><path d="M24 16a1 1 0 0 1-1 1H11.414l4.294 4.292a1 1 0 1 1-1.416 1.416l-6-6a.998.998 0 0 1 0-1.416l6-6a1 1 0 1 1 1.416 1.416L11.414 15H23a1 1 0 0 1 1 1z"/></symbol><symbol id="icon-arrow_up" viewBox="0 0 32 32"><path d="M28 2a2 2 0 0 1 2 2v24a2 2 0 0 1-2 2H4a2 2 0 0 1-2-2V4a2 2 0 0 1 2-2h24zM4 0a4 4 0 0 0-4 4v24a4 4 0 0 0 4 4h24a4 4 0 0 0 4-4V4a4 4 0 0 0-4-4H4z"/><path d="M16 24a1 1 0 0 0 1-1V11.414l4.292 4.294a1 1 0 1 0 1.416-1.416l-6-6a.998.998 0 0 0-1.416 0l-6 6a1 1 0 1 0 1.416 1.416L15 11.414V23a1 1 0 0 0 1 1z"/></symbol><symbol id="icon-pause" viewBox="0 0 32 32"><path d="M16 0C7.138 0 0 7.138 0 16s7.138 16 16 16 16-7.138 16-16S24.862 0 16 0zm0 27.077C9.846 27.077 4.923 22.154 4.923 16S9.846 4.923 16 4.923 27.077 9.846 27.077 16 22.154 27.077 16 27.077z"/><path d="M13.538 9.846h-2.462c-.738 0-1.231.492-1.231 1.231v9.846c0 .738.492 1.231 1.231 1.231h2.462c.738 0 1.231-.492 1.231-1.231v-9.846c0-.738-.492-1.231-1.231-1.231zM20.923 9.846h-2.462c-.738 0-1.231.492-1.231 1.231v9.846c0 .738.492 1.231 1.231 1.231h2.462c.738 0 1.231-.492 1.231-1.231v-9.846c0-.738-.492-1.231-1.231-1.231z"/></symbol><symbol id="icon-stop" viewBox="0 0 32 32"><path d="M16 0C7.163 0 0 7.163 0 16s7.163 16 16 16 16-7.163 16-16S24.837 0 16 0zm0 29C8.82 29 3 23.18 3 16S8.82 3 16 3s13 5.82 13 13-5.82 13-13 13zm-6-19h12v12H10V10z"/></symbol><symbol id="icon-video" viewBox="0 0 32 32"><path d="M28.027 9.425a2.25 2.25 0 0 0-2.417.297l-2.099 1.73a.99.99 0 0 0-.137 1.383.972.972 0 0 0 1.374.136l2.099-1.73a.312.312 0 0 1 .345-.042.32.32 0 0 1 .19.301v8.999a.32.32 0 0 1-.19.301.312.312 0 0 1-.346-.042l-4.972-4.099v-5.21c0-3.209-2.289-5.45-5.567-5.45H8.234c-3.278 0-5.567 2.241-5.567 5.45v9.115c0 3.2 2.284 5.435 5.554 5.435.539 0 .976-.44.976-.982s-.437-.982-.976-.982c-2.223 0-3.603-1.329-3.603-3.471v-9.115c0-2.15 1.385-3.485 3.616-3.485h8.073c2.231 0 3.616 1.335 3.616 3.485v9.115c0 2.141-1.385 3.471-3.616 3.471h-2.249c-.539 0-.976.44-.976.982s.437.982.976.982h2.249c3.278 0 5.567-2.236 5.567-5.435v-1.366l3.736 3.079a2.246 2.246 0 0 0 2.417.297 2.28 2.28 0 0 0 1.306-2.076v-8.999a2.28 2.28 0 0 0-1.306-2.076z"/></symbol><symbol id="icon-close-modal" viewBox="0 0 32 32"><path d="M25.867 3.733 22.134 0l-16 16 16 16 3.733-3.733L13.6 16z"/></symbol><symbol id="icon-throw" viewBox="0 0 32 32"><path fill="#37474f" style="fill:var(--color1,#37474f)" d="M19.581 17.9v.004A3.58 3.58 0 1 1 16 14.323a3.581 3.581 0 0 1 3.581 3.577z"/><path fill="#37474f" style="fill:var(--color1,#37474f)" d="M16 4.165c6.252.049 13.36 4.456 14 12.763h-8.465S20.444 12.339 16 12.37s-5.535 4.558-5.535 4.558H2C2.411 8.769 9.4 4.114 16 4.165zM16.058 27.835c-4.662.012-9.017-3.505-10.8-8.953h5.209s1.124 4.537 5.568 4.506 5.5-4.506 5.5-4.506h5.209c-.975 5.1-5.379 8.909-10.681 8.953h-.005z"/></symbol></defs></svg>