<svg aria-hidden="true" style="position: absolute; width: 0; height: 0; overflow: hidden;" version="1.1" xmlns="http://www.w3.org/2000/svg" xmlns:xlink="http://www.w3.org/1999/xlink">
<defs>
<symbol id="icon-down" viewBox="0 0 32 32">
<path d="M15.92 21.12c-0.24 0-0.4-0.080-0.56-0.24l-6.4-6.4c-0.32-0.32-0.32-0.8 0-1.12s0.8-0.32 1.12 0l5.84 5.84 5.84-5.84c0.32-0.32 0.8-0.32 1.12 0s0.32 0.8 0 1.12l-6.4 6.4c-0.16 0.16-0.4 0.24-0.56 0.24z"></path>
<path d="M15.92 32c-8.8 0-16-7.2-16-16s7.2-16 16-16c3.6 0 6.96 1.2 9.84 3.36 0.32 0.24 0.4 0.8 0.16 1.12-0.32 0.32-0.8 0.4-1.12 0.16-2.56-2-5.6-3.040-8.88-3.040-7.92 0-14.4 6.48-14.4 14.4s6.48 14.4 14.4 14.4 14.4-6.48 14.4-14.4c0-2.56-0.72-5.12-2-7.36-0.24-0.4-0.080-0.88 0.24-1.12 0.4-0.24 0.88-0.080 1.12 0.24 1.44 2.48 2.24 5.28 2.24 8.16 0 8.88-7.12 16.080-16 16.080z"></path>
</symbol>
<symbol id="icon-left" viewBox="0 0 32 32">
<path d="M18.24 23.2c-0.24 0-0.4-0.080-0.56-0.24l-6.4-6.4c-0.32-0.32-0.32-0.8 0-1.12l6.4-6.4c0.32-0.32 0.8-0.32 1.12 0s0.32 0.8 0 1.12l-5.84 5.84 5.84 5.84c0.32 0.32 0.32 0.8 0 1.12-0.16 0.16-0.4 0.24-0.56 0.24z"></path>
<path d="M16 32c-8.8 0-16-7.2-16-16s7.2-16 16-16c3.6 0 6.96 1.2 9.84 3.36 0.32 0.24 0.4 0.8 0.16 1.12s-0.8 0.4-1.12 0.16c-2.56-2-5.68-3.040-8.88-3.040-7.92 0-14.4 6.48-14.4 14.4s6.48 14.4 14.4 14.4 14.4-6.48 14.4-14.4c0-2.56-0.72-5.12-2-7.36-0.24-0.4-0.080-0.88 0.24-1.12 0.4-0.24 0.88-0.080 1.12 0.24 1.44 2.56 2.24 5.36 2.24 8.24 0 8.8-7.2 16-16 16z"></path>
</symbol>
<symbol id="icon-up" viewBox="0 0 32 32">
<path d="M22.32 18.88c-0.24 0-0.4-0.080-0.56-0.24l-5.84-5.84-5.84 5.84c-0.32 0.32-0.8 0.32-1.12 0s-0.32-0.8 0-1.12l6.4-6.4c0.32-0.32 0.8-0.32 1.12 0l6.4 6.4c0.32 0.32 0.32 0.8 0 1.12-0.16 0.16-0.32 0.24-0.56 0.24z"></path>
<path d="M16 32c-8.8 0-16-7.2-16-16s7.2-16 16-16c3.6 0 6.96 1.2 9.84 3.36 0.32 0.24 0.4 0.8 0.16 1.12s-0.8 0.4-1.12 0.16c-2.56-2-5.68-3.040-8.88-3.040-7.92 0-14.4 6.48-14.4 14.4s6.48 14.4 14.4 14.4 14.4-6.48 14.4-14.4c0-2.56-0.72-5.12-2-7.36-0.24-0.4-0.080-0.88 0.24-1.12 0.4-0.24 0.88-0.080 1.12 0.24 1.44 2.56 2.24 5.36 2.24 8.24 0 8.8-7.2 16-16 16z"></path>
</symbol>
<symbol id="icon-right" viewBox="0 0 32 32">
<path d="M13.44 23.2c-0.24 0-0.4-0.080-0.56-0.24-0.32-0.32-0.32-0.8 0-1.12l5.84-5.84-5.84-5.84c-0.32-0.32-0.32-0.8 0-1.12s0.8-0.32 1.12 0l6.4 6.4c0.32 0.32 0.32 0.8 0 1.12l-6.4 6.4c-0.16 0.16-0.4 0.24-0.56 0.24z"></path>
<path d="M16 32c-8.8 0-16-7.2-16-16s7.2-16 16-16c3.6 0 6.96 1.2 9.84 3.36 0.32 0.24 0.4 0.8 0.16 1.12s-0.8 0.4-1.12 0.16c-2.56-2-5.68-3.040-8.88-3.040-7.92 0-14.4 6.48-14.4 14.4s6.48 14.4 14.4 14.4 14.4-6.48 14.4-14.4c0-2.56-0.72-5.12-2-7.36-0.24-0.4-0.080-0.88 0.24-1.12 0.4-0.24 0.88-0.080 1.12 0.24 1.44 2.56 2.24 5.36 2.24 8.24 0 8.8-7.2 16-16 16z"></path>
</symbol>
<symbol id="icon-drone" viewBox="0 0 32 32">
<path d="M16.007 15.954c-0.486 0.001-0.902 0.174-1.248 0.52-0.346 0.345-0.52 0.761-0.52 1.247 0 0.488 0.174 0.905 0.52 1.251 0.345 0.345 0.761 0.517 1.248 0.516 0.488 0.001 0.905-0.171 1.251-0.516 0.345-0.346 0.517-0.763 0.516-1.251 0.001-0.486-0.172-0.902-0.516-1.247-0.346-0.346-0.763-0.519-1.251-0.52zM17.437 11.823h0.084c0.642 0.015 1.201 0.118 1.677 0.309 0.485 0.196 0.884 0.485 1.197 0.866h5.63v-1.629c-0.689-0.013-1.326-0.045-1.91-0.095-0.415-0.036-0.803-0.080-1.164-0.135-1.032-0.152-1.548-0.335-1.549-0.549 0.001-0.213 0.517-0.396 1.55-0.549 0.872-0.126 1.897-0.199 3.073-0.218v-0.076c-0.001-0.090 0.012-0.173 0.040-0.251 0.035-0.11 0.096-0.209 0.182-0.298 0.151-0.15 0.332-0.224 0.546-0.222 0.216-0.002 0.4 0.072 0.553 0.222 0.145 0.147 0.221 0.323 0.229 0.527 0 0.007 0 0.014 0 0.022v0.076c0.4 0.011 0.781 0.029 1.146 0.055 0.622 0.035 1.191 0.089 1.706 0.164 0.030 0.006 0.059 0.012 0.087 0.018 0.977 0.148 1.466 0.325 1.47 0.531-0.003 0.208-0.493 0.386-1.47 0.535-0.029 0.005-0.058 0.010-0.087 0.014-0.816 0.123-1.766 0.197-2.852 0.222v1.637h0.677c0.214 0.001 0.398 0.077 0.549 0.229 0.152 0.15 0.228 0.332 0.229 0.546-0 0.152-0.039 0.287-0.116 0.407-0.132 0.176-0.324 0.299-0.575 0.371-2.124 0.509-4.248 1.018-6.372 1.527l2.433 5.099c0.014 0.025 0.027 0.051 0.040 0.076 0.583 1.64 0.177 2.953-1.218 3.939-0.175 0.126-0.368 0.172-0.578 0.138-0.208-0.038-0.373-0.146-0.495-0.324-0.126-0.175-0.172-0.368-0.138-0.578 0.037-0.209 0.142-0.375 0.317-0.498 0.751-0.539 0.968-1.254 0.651-2.146l-2.557-5.335-0.666 0.164v2.658c0 0.19-0.047 0.367-0.142 0.531v0.004c-0.096 0.163-0.226 0.292-0.389 0.386l-2.684 1.546v0.004c-0.166 0.094-0.343 0.142-0.531 0.142-0.189-0.002-0.366-0.050-0.531-0.145l-2.688-1.553c-0.162-0.096-0.289-0.226-0.382-0.389-0.095-0.164-0.142-0.34-0.142-0.527v-2.655l-0.669-0.164-2.557 5.335c-0.317 0.892-0.1 1.607 0.651 2.146 0.175 0.123 0.28 0.289 0.316 0.498 0.034 0.211-0.012 0.403-0.138 0.578-0.122 0.177-0.287 0.285-0.495 0.324-0.21 0.034-0.403-0.012-0.578-0.138-1.396-0.986-1.802-2.299-1.218-3.939 0.013-0.026 0.026-0.051 0.040-0.076l2.433-5.099c-2.124-0.509-4.248-1.018-6.372-1.527-0.251-0.072-0.442-0.195-0.575-0.371-0.077-0.12-0.116-0.256-0.116-0.407 0.001-0.213 0.077-0.395 0.229-0.546 0.152-0.152 0.335-0.228 0.549-0.229h0.676v-1.637c-1.085-0.025-2.036-0.099-2.852-0.222-0.030-0.004-0.059-0.009-0.087-0.014-0.977-0.148-1.466-0.326-1.47-0.535 0.003-0.206 0.493-0.383 1.47-0.531 0.029-0.007 0.058-0.013 0.087-0.018 0.515-0.074 1.084-0.129 1.706-0.164 0.364-0.025 0.746-0.043 1.146-0.055v-0.076c0-0.007 0-0.015 0-0.022 0.008-0.204 0.084-0.38 0.229-0.527 0.153-0.15 0.337-0.224 0.553-0.222 0.213-0.002 0.395 0.072 0.546 0.222 0.086 0.089 0.147 0.188 0.182 0.298 0.028 0.078 0.041 0.161 0.040 0.251v0.076c1.177 0.019 2.201 0.092 3.073 0.218 1.032 0.153 1.549 0.336 1.55 0.549-0.001 0.214-0.517 0.397-1.55 0.549-0.361 0.054-0.749 0.099-1.164 0.135-0.584 0.050-1.22 0.082-1.91 0.095v1.629h5.63c0.313-0.381 0.712-0.669 1.197-0.866 0.476-0.191 1.035-0.294 1.677-0.309h0.084c0.073-0.002 0.148-0.002 0.225 0h2.408c0.077-0.002 0.152-0.002 0.225 0z"></path>
<path d="M16.004 16.838c0.244 0.001 0.452 0.088 0.626 0.262 0.172 0.172 0.259 0.379 0.258 0.622 0 0.244-0.086 0.452-0.258 0.626s-0.382 0.259-0.626 0.258c-0.243 0-0.45-0.086-0.622-0.258-0.174-0.173-0.261-0.382-0.262-0.626 0.001-0.243 0.088-0.45 0.262-0.622 0.172-0.174 0.379-0.261 0.622-0.262z"></path>
</symbol>
<symbol id="icon-up-arrow" viewBox="0 0 32 32">
<path d="M16 0l-16 16h10v16l12 0v-16h10l-16-16z"></path>
</symbol>
<symbol id="icon-down-arrow" viewBox="0 0 32 32">
<path d="M32 15.405l-8.058-0.002 0.002-14.771h-15.901v14.773l-8.043-0.002 16.001 15.965z"></path>
</symbol>
<symbol id="icon-arrow_down" viewBox="0 0 32 32">
<path d="M28 2v0c1.105 0 2 0.895 2 2v24c0 1.105-0.895 2-2 2h-24c-1.105 0-2-0.895-2-2v-24c0-1.105 0.895-2 2-2h24zM4 0c-2.209 0-4 1.791-4 4v0 24c0 2.209 1.791 4 4 4v0h24c2.209 0 4-1.791 4-4v0-24c0-2.209-1.791-4-4-4v0h-24z"></path>
<path d="M16 8c0.552 0 1 0.448 1 1v0 11.586l4.292-4.294c0.181-0.181 0.431-0.293 0.708-0.293 0.553 0 1.001 0.448 1.001 1.001 0 0.276-0.112 0.527-0.293 0.708v0l-6 6c-0.181 0.181-0.431 0.294-0.708 0.294s-0.527-0.112-0.708-0.294l-6-6c-0.181-0.181-0.293-0.431-0.293-0.708 0-0.553 0.448-1.001 1.001-1.001 0.277 0 0.527 0.112 0.708 0.293v0l4.292 4.294v-11.586c0-0.552 0.448-1 1-1v0z"></path>
</symbol>
<symbol id="icon-arrow_right" viewBox="0 0 32 32">
<path d="M30 4c0-1.105-0.895-2-2-2v0h-24c-1.105 0-2 0.895-2 2v0 24c0 1.105 0.895 2 2 2v0h24c1.105 0 2-0.895 2-2v0-24zM0 4c0-2.209 1.791-4 4-4v0h24c2.209 0 4 1.791 4 4v0 24c0 2.209-1.791 4-4 4v0h-24c-2.209 0-4-1.791-4-4v0-24zM9 15c-0.552 0-1 0.448-1 1s0.448 1 1 1v0h11.586l-4.294 4.292c-0.181 0.181-0.293 0.431-0.293 0.708 0 0.553 0.448 1.001 1.001 1.001 0.276 0 0.527-0.112 0.708-0.293v0l6-6c0.181-0.181 0.294-0.431 0.294-0.708s-0.112-0.527-0.294-0.708l-6-6c-0.181-0.181-0.431-0.293-0.708-0.293-0.553 0-1.001 0.448-1.001 1.001 0 0.277 0.112 0.527 0.293 0.708v0l4.294 4.292h-11.586z"></path>
</symbol>
<symbol id="icon-arrow_left" viewBox="0 0 32 32">
<path d="M28 2v0c1.105 0 2 0.895 2 2v24c0 1.105-0.895 2-2 2h-24c-1.105 0-2-0.895-2-2v-24c0-1.105 0.895-2 2-2h24zM4 0c-2.209 0-4 1.791-4 4v0 24c0 2.209 1.791 4 4 4v0h24c2.209 0 4-1.791 4-4v0-24c0-2.209-1.791-4-4-4v0h-24z"></path>
<path d="M24 16c0 0.552-0.448 1-1 1v0h-11.586l4.294 4.292c0.181 0.181 0.293 0.431 0.293 0.708 0 0.553-0.448 1.001-1.001 1.001-0.277 0-0.527-0.112-0.708-0.293v0l-6-6c-0.181-0.181-0.294-0.431-0.294-0.708s0.112-0.527 0.294-0.708l6-6c0.181-0.181 0.431-0.293 0.708-0.293 0.553 0 1.001 0.448 1.001 1.001 0 0.277-0.112 0.527-0.293 0.708v0l-4.294 4.292h11.586c0.552 0 1 0.448 1 1v0z"></path>
</symbol>
<symbol id="icon-arrow_up" viewBox="0 0 32 32">
<path d="M28 2v0c1.105 0 2 0.895 2 2v24c0 1.105-0.895 2-2 2h-24c-1.105 0-2-0.895-2-2v-24c0-1.105 0.895-2 2-2h24zM4 0c-2.209 0-4 1.791-4 4v0 24c0 2.209 1.791 4 4 4v0h24c2.209 0 4-1.791 4-4v0-24c0-2.209-1.791-4-4-4v0h-24z"></path>
<path d="M16 24c0.552 0 1-0.448 1-1v0-11.586l4.292 4.294c0.181 0.181 0.431 0.293 0.708 0.293 0.553 0 1.001-0.448 1.001-1.001 0-0.277-0.112-0.527-0.293-0.708v0l-6-6c-0.181-0.181-0.431-0.294-0.708-0.294s-0.527 0.112-0.708 0.294l-6 6c-0.181 0.181-0.293 0.431-0.293 0.708 0 0.553 0.448 1.001 1.001 1.001 0.277 0 0.527-0.112 0.708-0.293v0l4.292-4.294v11.586c0 0.552 0.448 1 1 1v0z"></path>
</symbol>
<symbol id="icon-pause" viewBox="0 0 32 32">
<path d="M16 0c-8.862 0-16 7.138-16 16s7.138 16 16 16 16-7.138 16-16-7.138-16-16-16zM16 27.077c-6.154 0-11.077-4.923-11.077-11.077s4.923-11.077 11.077-11.077 11.077 4.923 11.077 11.077-4.923 11.077-11.077 11.077z"></path>
<path d="M13.538 9.846h-2.462c-0.738 0-1.231 0.492-1.231 1.231v9.846c0 0.738 0.492 1.231 1.231 1.231h2.462c0.738 0 1.231-0.492 1.231-1.231v-9.846c0-0.738-0.492-1.231-1.231-1.231z"></path>
<path d="M20.923 9.846h-2.462c-0.738 0-1.231 0.492-1.231 1.231v9.846c0 0.738 0.492 1.231 1.231 1.231h2.462c0.738 0 1.231-0.492 1.231-1.231v-9.846c0-0.738-0.492-1.231-1.231-1.231z"></path>
</symbol>
<symbol id="icon-stop" viewBox="0 0 32 32">
<path d="M16 0c-8.837 0-16 7.163-16 16s7.163 16 16 16 16-7.163 16-16-7.163-16-16-16zM16 29c-7.18 0-13-5.82-13-13s5.82-13 13-13 13 5.82 13 13-5.82 13-13 13zM10 10h12v12h-12v-12z"></path>
</symbol>
<symbol id="icon-video" viewBox="0 0 32 32">
<path d="M28.027 9.425c-0.803-0.382-1.73-0.268-2.417 0.297l-2.099 1.73c-0.416 0.343-0.477 0.961-0.137 1.383 0.341 0.418 0.956 0.481 1.374 0.136l2.099-1.73c0.137-0.113 0.276-0.075 0.345-0.042 0.072 0.035 0.19 0.118 0.19 0.301v8.999c0 0.183-0.118 0.266-0.19 0.301-0.069 0.034-0.208 0.071-0.346-0.042l-4.972-4.099v-5.21c0-3.209-2.289-5.45-5.567-5.45h-8.073c-3.278 0-5.567 2.241-5.567 5.45v9.115c0 3.2 2.284 5.435 5.554 5.435 0.539 0 0.976-0.44 0.976-0.982s-0.437-0.982-0.976-0.982c-2.223 0-3.603-1.329-3.603-3.471v-9.115c0-2.15 1.385-3.485 3.616-3.485h8.073c2.231 0 3.616 1.335 3.616 3.485v9.115c0 2.141-1.385 3.471-3.616 3.471h-2.249c-0.539 0-0.976 0.44-0.976 0.982s0.437 0.982 0.976 0.982h2.249c3.278 0 5.567-2.236 5.567-5.435v-1.366l3.736 3.079c0.416 0.344 0.922 0.521 1.435 0.521 0.332 0 0.666-0.073 0.982-0.224 0.805-0.384 1.306-1.179 1.306-2.076v-8.999c0-0.897-0.501-1.692-1.306-2.076z"></path>
</symbol>
<symbol id="icon-close-modal" viewBox="0 0 32 32">
<path d="M25.867 3.733l-3.733-3.733-16 16 16 16 3.733-3.733-12.267-12.267z"></path>
</symbol>
<symbol id="icon-throw" viewBox="0 0 32 32">
<path fill="#37474f" style="fill: var(--color1, #37474f)" d="M19.581 17.9c0 0.001 0 0.003 0 0.004 0 1.978-1.603 3.581-3.581 3.581s-3.581-1.603-3.581-3.581c0-1.978 1.603-3.581 3.581-3.581v0c1.976 0 3.579 1.601 3.581 3.577v0z"></path>
<path fill="#37474f" style="fill: var(--color1, #37474f)" d="M16 4.165c6.252 0.049 13.36 4.456 14 12.763h-8.465s-1.091-4.589-5.535-4.558-5.535 4.558-5.535 4.558h-8.465c0.411-8.159 7.4-12.814 14-12.763z"></path>
<path fill="#37474f" style="fill: var(--color1, #37474f)" d="M16.058 27.835c-4.662 0.012-9.017-3.505-10.8-8.953h5.209s1.124 4.537 5.568 4.506 5.5-4.506 5.5-4.506h5.209c-0.975 5.1-5.379 8.909-10.681 8.953l-0.005 0z"></path>
</symbol>
</defs>
</svg>
